{"title":"Puss in Boots 2011 TS XviD - MiSTERE","uid":6782374,"size":1738911949,"categoryP":"video","categoryS":"movies","magnet":"?xt=urn:btih:463a241f00dea2d4c00c9fad5777cf03579f237c&amp;dn=Puss+in+Boots+2011+TS+XviD+-+MiSTERE&amp;tr=udp%3A%2F%2Ftracker.openbittorrent.com%3A80&amp;tr=udp%3A%2F%2Fopen.demonii.com%3A1337&amp;tr=udp%3A%2F%2Ftracker.coppersurfer.tk%3A6969&amp;tr=udp%3A%2F%2Fexodus.desync.com%3A6969","seeders":2,"leechers":0,"uploader":"LegendET","files":4,"time":1319956833,"description":"[center][img]http://lookpic.com/O/i2/723/5SDCLUGp.jpeg[/img]\n\n\nPuss in Boots 2011 TS XviD - MiSTERE\n &lt;a href=&quot;\nhttp://www.imdb.com/title/tt0448694/&quot; rel=&quot;nofollow&quot; target=&quot;_NEW&quot;&gt;\nhttp://www.imdb.com/title/tt0448694/&lt;/a&gt;\n\nVideo\nID                               : 0\nFormat                           : MPEG-4 Visual\nFormat profile                   : Advanced Simple@L5\nFormat settings, BVOP            : 2\nFormat settings, QPel            : No\nFormat settings, GMC             : No warppoints\nFormat settings, Matrix          : Default (H.263)\nMuxing mode                      : Packed bitstream\nCodec ID                         : XVID\nCodec ID/Hint                    : XviD\nDuration                         : 1h 20mn\nBit rate                         : 2 706 Kbps\nWidth                            : 720 pixels\nHeight                           : 304 pixels\nDisplay aspect ratio             : 2.35:1\nFrame rate                       : 25.000 fps\nColor space                      : YUV\nChroma subsampling               : 4:2:0\nBit depth                        : 8 bits\nScan type                        : Progressive\nCompression mode                 : Lossy\nBits/(Pixel*Frame)               : 0.494\nStream size                      : 1.53 GiB (95%)\nWriting library                  : XviD 64\n\nAudio\nID                               : 1\nFormat                           : MPEG Audio\nFormat version                   : Version 1\nFormat profile                   : Layer 3\nMode                             : Joint stereo\nMode extension                   : MS Stereo\nCodec ID                         : 55\nCodec ID/Hint                    : MP3\nDuration                         : 1h 20mn\nBit rate mode                    : Constant\nBit rate                         : 128 Kbps\nChannel(s)                       : 2 channels\nSampling rate                    : 44.1 KHz\nCompression mode                 : Lossy\nStream size                      : 74.0 MiB (5%)\nAlignment                        : Split accross interleaves\nInterleave, duration             : 40 ms (1.00 video frame)\n\n\n\nThanks to RELiZLABS for the source files\nSharpened Resized and tweaked RGB\n\n\n[img]http://img833.imageshack.us/img833/4755/dqbeo.png[/img]\n[img]http://img694.imageshack.us/img694/572/tbld5.png[/img]\n[img]http://img811.imageshack.us/img811/2847/hhxpp.png[/img][/center]","torrent":{"xt":"urn:btih:463a241f00dea2d4c00c9fad5777cf03579f237c","amp;dn":"Puss+in+Boots+2011+TS+XviD+-+MiSTERE","amp;tr":["udp%3A%2F%2Ftracker.openbittorrent.com%3A80","udp%3A%2F%2Fopen.demonii.com%3A1337","udp%3A%2F%2Ftracker.coppersurfer.tk%3A6969","udp%3A%2F%2Fexodus.desync.com%3A6969"],"infoHash":"463a241f00dea2d4c00c9fad5777cf03579f237c","infoHashBuffer":{"type":"Buffer","data":[70,58,36,31,0,222,162,212,192,12,159,173,87,119,207,3,87,159,35,124]},"announce":[],"urlList":[]}}